<svg width="100" height="101" viewBox="0 0 100 101" fill="none" xmlns="http://www.w3.org/2000/svg">
<g id="Group 1000000833">
<circle id="Ellipse 1007" cx="50" cy="50.1643" r="47.5" fill="white" stroke="#23146D" stroke-width="5"/>
<g id="&#240;&#159;&#166;&#134; icon &#34;fist raised solid&#34;">
<path id="Vector" d="M48.4943 18.1643C45.2579 18.1643 42.4142 19.8777 40.7842 22.4477C39.4515 21.6862 37.9405 21.2103 36.3104 21.2103C31.3012 21.2103 27.1725 25.339 27.1725 30.3482V41.485L26.7917 41.961C26.5656 42.2227 26.3515 42.4607 26.1254 42.7225C24.5667 44.5429 23.0794 46.4705 21.7468 48.4337L20.795 49.6711C19.498 51.3488 18.7008 53.3001 18.3201 55.2871C18.2725 55.5132 18.1654 55.7274 18.1297 55.9534C17.5943 59.749 18.7246 63.6992 21.3661 66.7095L28.6003 74.8956C32.6457 79.5002 38.464 82.1298 44.5916 82.1298H60.6782C72.4218 82.1298 82 72.5516 82 60.8079V33.3942C82 28.385 77.8713 24.2563 72.8621 24.2563C71.232 24.2563 69.7209 24.7322 68.3883 25.4937C66.7582 22.9236 63.9145 21.2103 60.6782 21.2103C59.0481 21.2103 57.537 21.6862 56.2044 22.4477C54.5743 19.8777 51.7306 18.1643 48.4943 18.1643ZM48.4943 24.2563C50.2195 24.2563 51.5403 25.577 51.5403 27.3022V33.9653C50.5765 33.6202 49.5651 33.3942 48.4943 33.3942H45.4483V27.3022C45.4483 25.577 46.769 24.2563 48.4943 24.2563ZM36.3104 27.3022C38.0356 27.3022 39.3564 28.6229 39.3564 30.3482V33.3942H35.073L34.2163 34.2509C34.2163 34.2509 33.5262 34.9529 33.2644 35.2027V30.3482C33.2644 28.6229 34.5851 27.3022 36.3104 27.3022ZM60.6782 27.3022C62.4034 27.3022 63.7242 28.6229 63.7242 30.3482V39.4861C63.7242 41.2114 62.4034 42.5321 60.6782 42.5321C58.9529 42.5321 57.6322 41.2114 57.6322 39.4861V30.3482C57.6322 28.6229 58.9529 27.3022 60.6782 27.3022ZM72.8621 30.3482C74.5873 30.3482 75.9081 31.6689 75.9081 33.3942V39.4861C75.9081 41.2114 74.5873 42.5321 72.8621 42.5321C71.1368 42.5321 69.8161 41.2114 69.8161 39.4861V33.3942C69.8161 31.6689 71.1368 30.3482 72.8621 30.3482ZM37.643 39.4861H48.4943C50.2076 39.4861 51.5403 40.8187 51.5403 42.5321C51.5403 44.2455 50.2076 45.5781 48.4943 45.5781H38.9756L38.1189 46.7203L30.9799 55.7631L35.7393 59.5705L41.3553 52.5267C42.4499 53.0383 43.6993 53.7998 45.0676 54.9064C48.3158 57.5478 51.5403 61.8669 51.5403 69.9459H57.6322C57.6322 61.2125 54.146 55.1919 50.3028 51.4796C52.7658 50.968 54.8956 49.4569 56.2044 47.3866C57.537 48.1481 59.0481 48.6241 60.6782 48.6241C63.0103 48.6241 65.152 47.7079 66.7701 46.2444C68.3883 47.7079 70.53 48.6241 72.8621 48.6241C73.9329 48.6241 74.9443 48.398 75.9081 48.0529V60.8079C75.9081 69.2558 69.126 76.0378 60.6782 76.0378H44.5916C40.213 76.0378 36.0605 74.1936 33.1692 70.8977L25.935 62.6165C24.6262 61.1292 24.0194 59.3088 24.1265 57.4764C24.1265 57.4526 24.2098 57.2503 24.2217 57.1909C24.2336 57.0957 24.2098 57.0005 24.2217 56.9053C24.3645 56.239 24.8285 54.954 25.8398 53.2882C25.9707 53.074 26.173 52.8361 26.3158 52.6219L30.7896 46.7203C34.1568 42.782 36.9648 40.1286 37.643 39.4861Z" fill="#23146D"/>
</g>
</g>
</svg>
