<svg width="100" height="101" viewBox="0 0 100 101" fill="none" xmlns="http://www.w3.org/2000/svg">
<circle cx="50" cy="50.1643" r="47.5" fill="white" stroke="#23146D" stroke-width="5"/>
<path d="M24.6449 38.0671C30.6443 32.916 35.3834 28.8431 48.244 36.1097C54.422 39.5987 59.4049 40.9174 63.5498 40.9105C70.8129 40.9105 75.5211 36.872 79.5905 33.3796C80.289 32.7719 80.7234 31.9161 80.8016 30.9936C80.8798 30.0712 80.5957 29.1545 80.0094 28.4379C79.7235 28.0863 79.3699 27.7956 78.9697 27.583C78.5694 27.3704 78.1305 27.2402 77.6791 27.2002C77.2276 27.1602 76.7728 27.2111 76.3413 27.35C75.9099 27.4888 75.5107 27.7128 75.1674 28.0086C69.1714 33.1666 64.4289 37.2395 51.5682 29.9661C34.5763 20.3746 26.6161 27.2085 20.2218 32.703C19.5238 33.3112 19.0901 34.1672 19.0125 35.0897C18.935 36.0121 19.2197 36.9286 19.8063 37.6447C20.0924 37.9957 20.4461 38.2858 20.8463 38.4977C21.2465 38.7096 21.6852 38.8391 22.1363 38.8785C22.5875 38.9179 23.042 38.8664 23.4729 38.727C23.9037 38.5876 24.3023 38.3632 24.6449 38.0671ZM75.1674 45.5466C69.1714 50.6977 64.4289 54.7774 51.5682 47.504C34.5763 37.9057 26.6161 44.743 20.2218 50.2341C19.5238 50.8422 19.0901 51.6982 19.0125 52.6207C18.935 53.5432 19.2197 54.4596 19.8063 55.1758C20.0919 55.5273 20.4452 55.8179 20.8452 56.0305C21.2451 56.243 21.6837 56.3732 22.1349 56.4132C22.586 56.4532 23.0407 56.4023 23.4718 56.2635C23.903 56.1247 24.3019 55.9008 24.6449 55.605C30.6443 50.4505 35.3834 46.3776 48.244 53.6407C54.422 57.1366 59.4049 58.4485 63.5498 58.4485C70.8129 58.4485 75.5211 54.41 79.5905 50.9106C80.2895 50.3041 80.7244 49.4488 80.8026 48.5266C80.8808 47.6044 80.5963 46.6881 80.0094 45.9724C79.7235 45.6206 79.3699 45.3298 78.9695 45.1173C78.5691 44.9047 78.1301 44.7747 77.6785 44.735C77.2269 44.6953 76.772 44.7467 76.3406 44.8861C75.9093 45.0255 75.5103 45.2501 75.1674 45.5466ZM75.1674 63.0811C69.1714 68.2391 64.4289 72.3119 51.5682 65.0454C34.5763 55.4471 26.6161 62.2809 20.2218 67.7755C19.5238 68.3836 19.0901 69.2396 19.0125 70.1621C18.935 71.0846 19.2197 72.001 19.8063 72.7171C20.0921 73.0686 20.4457 73.359 20.8459 73.5712C21.2461 73.7834 21.6849 73.913 22.1362 73.9524C22.5875 73.9918 23.0421 73.9402 23.4731 73.8005C23.904 73.6609 24.3025 73.4361 24.6449 73.1395C30.6443 67.9884 35.3834 63.919 48.244 71.1821C54.422 74.6711 59.4049 75.9898 63.5498 75.9898C70.8129 75.9898 75.5211 71.9445 79.5905 68.452C80.289 67.8443 80.7234 66.9886 80.8016 66.0661C80.8798 65.1436 80.5957 64.2269 80.0094 63.5103C79.7232 63.1591 79.3695 62.8688 78.9693 62.6565C78.569 62.4441 78.1303 62.3141 77.679 62.2741C77.2277 62.2341 76.7729 62.2849 76.3415 62.4235C75.9102 62.5621 75.5109 62.7857 75.1674 63.0811Z" fill="#23146D"/>
</svg>
