<svg width="100" height="101" viewBox="0 0 100 101" fill="none" xmlns="http://www.w3.org/2000/svg">
<g id="Group 1000000817">
<circle id="Ellipse 999" cx="50" cy="50.1643" r="47.5" fill="white" stroke="#23146D" stroke-width="5"/>
<g id="&#240;&#159;&#166;&#134; icon &#34;friendship&#34;">
<g id="Group">
<path id="Vector" fill-rule="evenodd" clip-rule="evenodd" d="M67.2599 36.2019C68.7853 36.4561 69.8157 37.8987 69.5614 39.424L66.8651 55.6009L72.2916 74.5936C72.7164 76.0804 71.8554 77.6301 70.3686 78.0549C68.8819 78.4796 67.3321 77.6189 66.9074 76.1319L61.3075 56.5324C61.1933 56.1328 61.1695 55.7129 61.2378 55.3029L64.0377 38.5034C64.292 36.9781 65.7345 35.9476 67.2599 36.2019Z" fill="#23146D"/>
<path id="Vector_2" fill-rule="evenodd" clip-rule="evenodd" d="M64.7688 53.0713C63.282 52.6466 61.7323 53.5073 61.3075 54.9943L55.7077 74.5938C55.2826 76.0806 56.1436 77.6303 57.6307 78.0551C59.1174 78.4798 60.6672 77.6191 61.0919 76.1321L66.6918 56.5326C67.1165 55.0458 66.2555 53.4961 64.7688 53.0713Z" fill="#23146D"/>
<path id="Vector_3" fill-rule="evenodd" clip-rule="evenodd" d="M49.2135 26.0153C48.2475 27.2228 48.4432 28.9848 49.6509 29.9508L56.6507 35.5506C56.7058 35.5947 56.7627 35.6368 56.8209 35.6766L57.0648 35.8429L57.7292 36.2946C58.2911 36.6761 59.0706 37.2043 59.9423 37.7908C61.6777 38.9587 63.8042 40.3768 65.2963 41.3263C66.2623 41.941 67.4519 43.0995 68.4974 44.2604C68.9953 44.8134 69.4195 45.3202 69.7182 45.6881C69.7571 45.736 69.7941 45.7816 69.8285 45.8242L72.4831 56.4426C72.858 57.9428 74.3781 58.8551 75.8783 58.4799C77.3785 58.105 78.2907 56.5849 77.9156 55.0847L75.1156 43.8849C75.0238 43.5175 74.8586 43.1726 74.6296 42.8709L72.3994 44.564C74.6296 42.8709 74.6296 42.8709 74.6296 42.8709L74.6245 42.8643L74.615 42.8519L74.5831 42.8105C74.5565 42.7758 74.5187 42.7269 74.4705 42.6654C74.3742 42.5426 74.2367 42.3689 74.0645 42.1569C73.721 41.7341 73.2344 41.1523 72.6584 40.513C71.5564 39.289 69.9458 37.6476 68.3028 36.6019C66.8777 35.695 64.8043 34.3131 63.0689 33.1452C62.2054 32.5639 61.4321 32.0402 60.8749 31.6618L60.2172 31.2146L60.0655 31.1112L53.1491 25.578C51.9415 24.612 50.1795 24.8078 49.2135 26.0153Z" fill="#23146D"/>
<path id="Vector_4" fill-rule="evenodd" clip-rule="evenodd" d="M75.1992 27.7642C75.1992 24.6714 72.6922 22.1643 69.5994 22.1643C66.5066 22.1643 63.9995 24.6714 63.9995 27.7642C63.9995 30.8569 66.5066 33.364 69.5994 33.364C72.6922 33.364 75.1992 30.8569 75.1992 27.7642Z" fill="#23146D"/>
<path id="Vector_5" fill-rule="evenodd" clip-rule="evenodd" d="M32.7401 36.2019C31.2148 36.4561 30.1844 37.8987 30.4386 39.424L33.1348 55.6009L27.7083 74.5936C27.2835 76.0804 28.1445 77.6301 29.6313 78.0549C31.1182 78.4796 32.6679 77.6189 33.0927 76.1319L38.6926 56.5324C38.8067 56.1328 38.8305 55.7129 38.7622 55.3029L35.9623 38.5034C35.708 36.9781 34.2654 35.9476 32.7401 36.2019Z" fill="#23146D"/>
<path id="Vector_6" fill-rule="evenodd" clip-rule="evenodd" d="M35.2312 53.0713C36.718 52.6466 38.2677 53.5073 38.6926 54.9943L44.2924 74.5938C44.7171 76.0806 43.8563 77.6303 42.3694 78.0551C40.8826 78.4798 39.3328 77.6191 38.908 76.1321L33.3082 56.5326C32.8833 55.0458 33.7443 53.4961 35.2312 53.0713Z" fill="#23146D"/>
<path id="Vector_7" fill-rule="evenodd" clip-rule="evenodd" d="M50.7865 26.0153C51.7524 27.2228 51.5564 28.9848 50.3491 29.9508L43.3493 35.5506C43.2941 35.5947 43.2373 35.6368 43.179 35.6766L42.935 35.8429L42.2708 36.2946C41.7089 36.6761 40.9291 37.2043 40.0576 37.7908C38.3223 38.9587 36.1957 40.3768 34.7036 41.3263C33.7376 41.941 32.548 43.0995 31.5026 44.2604C31.0045 44.8134 30.5804 45.3202 30.2817 45.6881C30.2427 45.736 30.206 45.7816 30.1715 45.8242L27.5169 56.4426C27.1419 57.9428 25.6217 58.8551 24.1215 58.4799C22.6213 58.105 21.7092 56.5849 22.0843 55.0847L24.8842 43.8849C24.976 43.5175 25.1414 43.1726 25.3704 42.8709L27.6005 44.564C25.3704 42.8709 25.3704 42.8709 25.3704 42.8709L25.3755 42.8643L25.385 42.8519L25.4167 42.8105C25.4435 42.7758 25.4813 42.7269 25.5295 42.6654C25.6257 42.5426 25.7632 42.3689 25.9355 42.1569C26.279 41.7341 26.7656 41.1523 27.3414 40.513C28.4437 39.289 30.054 37.6476 31.6972 36.6019C33.1222 35.695 35.1955 34.3131 36.9308 33.1452C37.7946 32.5639 38.5678 32.0402 39.1251 31.6618L39.7827 31.2146L39.9344 31.1112L46.8509 25.578C48.0585 24.612 49.8205 24.8078 50.7865 26.0153Z" fill="#23146D"/>
<path id="Vector_8" fill-rule="evenodd" clip-rule="evenodd" d="M36.0002 27.7642C36.0002 24.6714 33.4931 22.1643 30.4004 22.1643C27.3077 22.1643 24.8005 24.6714 24.8005 27.7642C24.8005 30.8569 27.3077 33.364 30.4004 33.364C33.4931 33.364 36.0002 30.8569 36.0002 27.7642Z" fill="#23146D"/>
</g>
</g>
</g>
</svg>
