<svg width="100" height="101" viewBox="0 0 100 101" fill="none" xmlns="http://www.w3.org/2000/svg">
<g id="Group 1000000826">
<circle id="Ellipse 1004" cx="50" cy="50.1643" r="47.5" fill="white" stroke="#23146D" stroke-width="5"/>
<g id="&#240;&#159;&#166;&#134; icon &#34;handshake&#34;">
<path id="Vector" d="M86.4629 42.5242L79.1916 28.5993C78.6134 27.5039 77.6305 26.6776 76.452 26.2962C75.2736 25.9149 73.9929 26.0087 72.8826 26.5576L65.9993 29.9991H61.1543L51.3981 25.5846C50.3692 25.1195 49.2081 25.0375 48.1241 25.3531L33.7333 29.5485L27.1177 26.2407C26.0073 25.6921 24.7267 25.5985 23.5483 25.9798C22.37 26.3611 21.3869 27.1872 20.8084 28.2823L13.5371 42.2074C13.2464 42.7643 13.0695 43.3736 13.0167 43.9996C12.964 44.6255 13.0364 45.2558 13.2298 45.8535C13.4232 46.4512 13.7337 47.0044 14.1432 47.4808C14.5527 47.9572 15.053 48.3473 15.6149 48.6283L22.7109 52.1764L38.6854 64.6678C39.207 65.0767 39.8091 65.3707 40.4522 65.5305L57.5883 69.8146C57.9601 69.9075 58.3419 69.9544 58.7251 69.9543C59.9826 69.9546 61.1892 69.4571 62.0811 68.5707L72.9608 57.6905C72.9724 57.679 72.9828 57.6664 72.994 57.6546C73.0089 57.6391 73.0234 57.6232 73.0379 57.6072C73.0538 57.5896 73.0707 57.573 73.0862 57.555L77.5055 52.385L84.3851 48.9452C84.947 48.6642 85.4473 48.274 85.8568 47.7976C86.2663 47.3212 86.5768 46.768 86.7702 46.1703C86.9636 45.5726 87.036 44.9423 86.9833 44.3163C86.9305 43.6903 86.7536 43.0811 86.4629 42.5242ZM70.9109 52.819L59.6699 44.6437C59.2609 44.3461 58.7672 44.1875 58.2613 44.1912C57.7555 44.1949 57.2642 44.3608 56.8596 44.6643L53.0751 47.5028C51.8444 48.4184 50.3513 48.9129 48.8173 48.9129C47.2834 48.9129 45.7903 48.4184 44.5596 47.5028L42.9571 46.3008L54.5277 34.7298H60.6317C60.6353 34.7298 60.6389 34.7304 60.6426 34.7304L60.6507 34.7298H65.124L73.1823 50.1619L70.9109 52.819ZM25.0021 30.4719L30.2314 33.0866L22.9601 47.0118L17.7307 44.3971L25.0021 30.4719ZM58.7358 65.2253L41.5997 60.9413L26.9893 49.5164L35.0421 34.0945L49.4482 29.8947L51.7248 30.9248C51.5329 31.0645 51.3517 31.2182 51.1827 31.3848L39.6117 42.9557C39.1325 43.435 38.7618 44.0116 38.5249 44.6466C38.2879 45.2816 38.1901 45.9601 38.2382 46.6361C38.2862 47.3122 38.479 47.97 38.8034 48.5651C39.1278 49.1602 39.5763 49.6786 40.1185 50.0853L41.7212 51.2873C43.7723 52.8134 46.2608 53.6376 48.8173 53.6376C51.3739 53.6376 53.8623 52.8134 55.9134 51.2873L58.3004 49.4971L67.6583 56.3028L58.7358 65.2253ZM82.2692 44.714L77.0399 47.3287L69.7685 33.4035L74.9979 30.7889L82.2721 44.7124L82.2692 44.714ZM47.5639 74.3319C47.4889 74.6334 47.3552 74.9172 47.1704 75.167C46.9856 75.4168 46.7533 75.6277 46.4868 75.7875C46.2204 75.9474 45.925 76.0531 45.6176 76.0986C45.3102 76.1441 44.9969 76.1286 44.6956 76.0528L35.7842 73.8252C35.0612 73.6433 34.391 73.2942 33.8277 72.8059L27.1601 67.01C26.6866 66.5985 26.396 66.0157 26.3522 65.3899C26.3084 64.7641 26.515 64.1466 26.9265 63.6731C27.3381 63.1996 27.9208 62.909 28.5466 62.8652C29.1724 62.8214 29.79 63.0279 30.2635 63.4395L36.9317 69.2356L45.843 71.4636C46.1444 71.5389 46.4279 71.6728 46.6775 71.8577C46.9271 72.0426 47.1378 72.2749 47.2976 72.5413C47.4574 72.8076 47.5632 73.1028 47.6089 73.4101C47.6546 73.7173 47.6393 74.0306 47.5639 74.3319Z" fill="#23146D"/>
</g>
</g>
</svg>
